<?xml version="1.0" encoding="UTF-8"?>
<svg id="Layer_1" data-name="Layer 1" xmlns="http://www.w3.org/2000/svg" xmlns:xlink="http://www.w3.org/1999/xlink" viewBox="0 0 1080 1080">
  <defs>
    <style>
      .cls-1 {
        fill: url(#linear-gradient-5);
      }

      .cls-2 {
        fill: url(#linear-gradient-6);
      }

      .cls-3 {
        fill: url(#linear-gradient-4);
      }

      .cls-4 {
        fill: url(#linear-gradient-3);
      }

      .cls-5 {
        fill: url(#linear-gradient-2);
      }

      .cls-6 {
        fill: url(#linear-gradient);
      }

      .cls-7 {
        fill: #fff200;
      }
    </style>
    <linearGradient id="linear-gradient" x1="217.5" y1="244.9" x2="217.86" y2="601.25" gradientUnits="userSpaceOnUse">
      <stop offset=".1" stop-color="#fff"/>
      <stop offset=".92" stop-color="#ee58a0"/>
    </linearGradient>
    <linearGradient id="linear-gradient-2" x1="403.16" y1="415.45" x2="403.16" y2="605.77" xlink:href="#linear-gradient"/>
    <linearGradient id="linear-gradient-3" x1="564.66" y1="415.68" x2="564.66" y2="594.54" xlink:href="#linear-gradient"/>
    <linearGradient id="linear-gradient-4" x1="710.57" y1="431.05" x2="710.57" y2="597.84" xlink:href="#linear-gradient"/>
    <linearGradient id="linear-gradient-5" x1="861.14" y1="426.65" x2="861.14" y2="595.39" xlink:href="#linear-gradient"/>
    <linearGradient id="linear-gradient-6" x1="969.26" y1="385.04" x2="969.26" y2="596.32" xlink:href="#linear-gradient"/>
  </defs>
  <path class="cls-6" d="M327.73,446.57l-1.78,18.02-57.7,74.68,51.36,82.55c3.34,3.22,2.04,16.44-2.18,16.44H107.88l1.34-8.46,28.64-183,36.22-.21c-.54-31.6,5.64-65.31,40.82-74.03,28.15-6.97,66.89,14.05,66.89,44.71v29.31M259.61,446.57v-22.97c0-.71-2.28-8.32-2.83-9.84-8.65-23.85-42.28-27.1-54.52-4.75-1.25,2.28-4.42,11.06-4.42,13v24.55h61.78ZM174.07,468.74h-17.41s-20.61,147.32-20.61,147.32h142.57l-39.11-73.66,53.36-73.66h-96.63v22.97c-5.8,4.33-16.19,5.03-22.18,0v-22.97Z"/>
  <g>
    <g>
      <path class="cls-7" d="M442.9,499.22h30.9v130.2h-30.37l-1.59-19.01c-7.39,15.32-27.73,22.71-42.25,22.98-38.56.26-67.08-23.5-67.08-69.19s29.84-68.4,67.87-68.13c17.43,0,34.07,8.19,41.46,21.13l1.06-17.96ZM364.73,564.18c0,24.82,17.17,39.61,38.56,39.61,50.7,0,50.7-78.96,0-78.96-21.39,0-38.56,14.53-38.56,39.35Z"/>
      <path class="cls-7" d="M596.87,629.41v-68.13c0-19.81-10.83-34.86-31.43-34.86s-33.27,16.64-33.27,36.44v66.55h-31.95v-130.46h28.78l2.11,17.69c13.2-12.94,26.41-19.54,42.78-19.54,30.63,0,55.2,22.98,55.2,63.91v68.4h-32.22Z"/>
      <path class="cls-7" d="M783.59,498.96l-55.46,130.99h-34.86l-55.72-130.99h35.12l17.96,43.05,20.07,54.93,19.81-54.4,17.96-43.57h35.12Z"/>
      <path class="cls-7" d="M826.65,575.8c2.11,16.11,16.11,27.73,38.82,27.73,11.88,0,27.46-4.49,34.86-12.15l20.6,20.34c-13.73,14.26-36.18,21.13-55.99,21.13-44.89,0-71.57-27.73-71.57-69.46s26.94-68.13,69.19-68.13,70.78,26.94,65.76,80.55h-101.67ZM897.42,549.13c-2.11-16.9-15.32-25.35-33.8-25.35-17.43,0-31.69,8.45-36.44,25.35h70.25Z"/>
      <path class="cls-7" d="M988.27,462.51c0,25.09-38.03,25.09-38.03,0s38.03-25.09,38.03,0ZM953.15,498.69v130.72h32.22v-130.72h-32.22Z"/>
    </g>
    <g>
      <path class="cls-5" d="M442.9,499.22h30.9v130.2h-30.37l-1.59-19.01c-7.39,15.32-27.73,22.71-42.25,22.98-38.56.26-67.08-23.5-67.08-69.19s29.84-68.4,67.87-68.13c17.43,0,34.07,8.19,41.46,21.13l1.06-17.96ZM364.73,564.18c0,24.82,17.17,39.61,38.56,39.61,50.7,0,50.7-78.96,0-78.96-21.39,0-38.56,14.53-38.56,39.35Z"/>
      <path class="cls-4" d="M596.87,629.41v-68.13c0-19.81-10.83-34.86-31.43-34.86s-33.27,16.64-33.27,36.44v66.55h-31.95v-130.46h28.78l2.11,17.69c13.2-12.94,26.41-19.54,42.78-19.54,30.63,0,55.2,22.98,55.2,63.91v68.4h-32.22Z"/>
      <path class="cls-3" d="M783.59,498.96l-55.46,130.99h-34.86l-55.72-130.99h35.12l17.96,43.05,20.07,54.93,19.81-54.4,17.96-43.57h35.12Z"/>
      <path class="cls-1" d="M826.65,575.8c2.11,16.11,16.11,27.73,38.82,27.73,11.88,0,27.46-4.49,34.86-12.15l20.6,20.34c-13.73,14.26-36.18,21.13-55.99,21.13-44.89,0-71.57-27.73-71.57-69.46s26.94-68.13,69.19-68.13,70.78,26.94,65.76,80.55h-101.67ZM897.42,549.13c-2.11-16.9-15.32-25.35-33.8-25.35-17.43,0-31.69,8.45-36.44,25.35h70.25Z"/>
      <path class="cls-2" d="M988.27,462.51c0,25.09-38.03,25.09-38.03,0s38.03-25.09,38.03,0ZM953.15,498.69v130.72h32.22v-130.72h-32.22Z"/>
    </g>
  </g>
</svg>